<svg width="25" height="25" viewBox="0 0 25 25" fill="none" xmlns="http://www.w3.org/2000/svg">
<path d="M8.24862 2.35953C4.8704 2.35953 2.12354 5.10639 2.12354 8.48461V16.9655C2.12354 20.3437 4.8704 23.0906 8.24862 23.0906H16.7295C20.1077 23.0906 22.8546 20.3437 22.8546 16.9655V8.48461C22.8546 5.10639 20.1077 2.35953 16.7295 2.35953H8.24862ZM18.143 6.12881C18.6613 6.12881 19.0853 6.55285 19.0853 7.07113C19.0853 7.58941 18.6613 8.01345 18.143 8.01345C17.6247 8.01345 17.2007 7.58941 17.2007 7.07113C17.2007 6.55285 17.6247 6.12881 18.143 6.12881ZM12.4891 7.54229C15.349 7.54229 17.6718 9.86511 17.6718 12.7251C17.6718 15.585 15.349 17.9078 12.4891 17.9078C9.62912 17.9078 7.3063 15.585 7.3063 12.7251C7.3063 9.86511 9.62912 7.54229 12.4891 7.54229ZM12.4891 8.48461C10.1521 8.48461 8.24862 10.3881 8.24862 12.7251C8.24862 15.062 10.1521 16.9655 12.4891 16.9655C14.826 16.9655 16.7295 15.062 16.7295 12.7251C16.7295 10.3881 14.826 8.48461 12.4891 8.48461Z" fill="#BDEEEB"/>
</svg>
