<svg width="27" height="28" viewBox="0 0 27 28" fill="none" xmlns="http://www.w3.org/2000/svg">
<g clip-path="url(#clip0_392_645)">
<path d="M2.36396 12.813C9.19312 9.71176 18.0306 5.93069 19.2505 5.40737C22.4504 4.03764 23.4323 4.30014 22.9427 7.33352C22.5912 9.51376 21.5767 16.732 20.7681 21.2249C20.2883 23.8892 19.2119 24.205 17.5193 23.0523C16.7053 22.4976 12.5968 19.6931 11.7052 19.0346C10.8912 18.4344 9.76856 17.7125 11.1764 16.2906C11.6774 15.7841 14.9616 12.5471 17.5204 10.0275C17.8556 9.69661 17.4345 9.15309 17.0476 9.4184C13.5988 11.7793 8.8171 15.0561 8.20852 15.4829C7.28913 16.1274 6.40614 16.423 4.82111 15.9529C3.62351 15.5979 2.45362 15.1744 1.99827 15.0129C0.244791 14.3914 0.661018 13.5865 2.36396 12.813Z" fill="#00302C"/>
</g>
<defs>
<clipPath id="clip0_392_645">
<rect width="26.0821" height="26.9234" fill="white" transform="translate(0.186035 0.688477)"/>
</clipPath>
</defs>
</svg>
