<svg width="62" height="62" viewBox="0 0 62 62" fill="none" xmlns="http://www.w3.org/2000/svg">
<circle cx="30.7232" cy="30.7322" r="30.2889" fill="#00302C"/>
<path d="M29.6427 6.75273C29.7856 5.82967 31.1152 5.82966 31.2581 6.75273L33.657 22.2488C33.7447 22.8153 34.373 23.1179 34.8706 22.8333L48.4816 15.0471C49.2924 14.5833 50.1214 15.6229 49.4888 16.3101L38.8692 27.8473C38.481 28.2691 38.6362 28.949 39.1689 29.1605L53.7427 34.9475C54.6108 35.2922 54.3149 36.5885 53.3832 36.5224L37.7418 35.413C37.1701 35.3724 36.7352 35.9177 36.902 36.4661L41.4642 51.4684C41.7359 52.3621 40.538 52.939 40.0087 52.1693L31.1239 39.2487C30.7991 38.7764 30.1017 38.7764 29.7769 39.2487L20.8921 52.1693C20.3628 52.939 19.1649 52.3621 19.4366 51.4684L23.9988 36.4661C24.1655 35.9177 23.7307 35.3724 23.159 35.413L7.51757 36.5224C6.58585 36.5885 6.28997 35.2922 7.1581 34.9475L21.7319 29.1605C22.2646 28.949 22.4198 28.2691 22.0316 27.8473L11.412 16.3101C10.7794 15.6229 11.6084 14.5833 12.4192 15.0471L26.0302 22.8333C26.5277 23.1179 27.1561 22.8153 27.2438 22.2488L29.6427 6.75273Z" fill="#BDEEEB"/>
</svg>
