<svg width="62" height="61" viewBox="0 0 62 61" fill="none" xmlns="http://www.w3.org/2000/svg">
<mask id="mask0_8_5518" style="mask-type:alpha" maskUnits="userSpaceOnUse" x="0" y="0" width="62" height="61">
<circle cx="30.7232" cy="30.4578" r="30.2889" fill="#D9D9D9"/>
</mask>
<g mask="url(#mask0_8_5518)">
<circle cx="30.7232" cy="30.4578" r="30.0845" fill="#00302C" stroke="#00302C" stroke-width="0.40867"/>
</g>
<path d="M29.583 17.4749C27.9373 17.4749 26.6573 17.8254 25.743 18.5264C24.8592 19.1969 24.4173 20.3397 24.4173 21.955C24.4173 22.6864 24.5697 23.3111 24.8744 23.8292C25.1792 24.3473 25.5601 24.7892 26.0173 25.155C26.5049 25.5207 27.0535 25.8254 27.663 26.0693C28.303 26.2826 28.943 26.4654 29.583 26.6178V17.4749ZM23.7316 36.8579C23.7011 38.8693 24.143 40.4541 25.0573 41.6122C25.9716 42.7703 27.4801 43.3798 29.583 43.4407V32.3778C28.3335 32.0426 27.084 31.6464 25.8344 31.1893C24.6154 30.7016 23.503 30.0921 22.4973 29.3607C21.522 28.5988 20.7296 27.654 20.1201 26.5264C19.5106 25.3988 19.2058 23.9969 19.2058 22.3207C19.2058 20.8578 19.4801 19.5778 20.0287 18.4807C20.6077 17.353 21.3696 16.4235 22.3144 15.6921C23.2897 14.9302 24.402 14.3511 25.6516 13.9549C26.9011 13.5587 28.2116 13.3606 29.583 13.3606V9.79492H31.5487V13.3606C32.9202 13.3606 34.2154 13.5435 35.4345 13.9092C36.6535 14.2749 37.7049 14.8235 38.5887 15.5549C39.503 16.2864 40.2192 17.2159 40.7373 18.3435C41.2859 19.4711 41.5602 20.7816 41.5602 22.275H36.3487C36.2878 20.7207 35.8764 19.5321 35.1144 18.7092C34.383 17.8864 33.1944 17.4749 31.5487 17.4749V27.1207C32.9202 27.4864 34.2611 27.9131 35.5716 28.4007C36.8821 28.8883 38.0402 29.5131 39.0459 30.275C40.0516 31.0369 40.8592 31.9816 41.4688 33.1093C42.0783 34.2369 42.383 35.6236 42.383 37.2693C42.383 38.976 42.0935 40.4693 41.5145 41.7493C40.9659 42.9988 40.204 44.0503 39.2287 44.9036C38.2535 45.7264 37.1106 46.3512 35.8002 46.7779C34.4897 47.235 33.0725 47.4941 31.5487 47.555V51.1208H29.583V47.555C27.9373 47.5245 26.4287 47.2655 25.0573 46.7779C23.6858 46.2903 22.5125 45.6045 21.5373 44.7207C20.562 43.8064 19.8001 42.6941 19.2515 41.3836C18.7335 40.0731 18.4896 38.5645 18.5201 36.8579H23.7316ZM31.5487 43.4407C33.1944 43.3188 34.5354 42.8464 35.5716 42.0236C36.6383 41.1702 37.1716 39.8293 37.1716 38.0007C37.1716 37.1474 37.004 36.4312 36.6687 35.8521C36.364 35.2731 35.9373 34.7855 35.3887 34.3893C34.8706 33.9931 34.2764 33.6731 33.6059 33.4293C32.9354 33.1855 32.2497 32.9721 31.5487 32.7893V43.4407Z" fill="#63D4CA"/>
</svg>
