<svg width="62" height="62" viewBox="0 0 62 62" fill="none" xmlns="http://www.w3.org/2000/svg">
<circle cx="30.7232" cy="31.201" r="29.966" fill="#00302C" stroke="#00302C" stroke-width="0.645799"/>
<g clip-path="url(#clip0_8_5538)">
<path d="M9.81958 24.1277C9.81958 23.1155 10.0017 22.219 10.3659 21.4411C10.7301 20.6632 11.2167 20.0154 11.8257 19.4977C12.4108 19.0032 13.0706 18.6273 13.814 18.367C14.5573 18.1067 15.3036 17.9795 16.0589 17.9795C16.8142 17.9795 17.5605 18.1096 18.3039 18.367C19.0472 18.6273 19.7219 19.0032 20.3309 19.4977C20.9161 20.0154 21.3877 20.6632 21.7549 21.4411C22.1191 22.219 22.3013 23.1155 22.3013 24.1277V25.4001H18.5785V24.1277C18.5785 23.2572 18.3278 22.6123 17.8292 22.2017C17.3307 21.791 16.7396 21.5828 16.0589 21.5828C15.3783 21.5828 14.7872 21.7881 14.2886 22.2017C13.7901 22.6152 13.5393 23.2572 13.5393 24.1277V37.4189C13.5393 38.2922 13.7871 38.9342 14.2886 39.3449C14.7872 39.7584 15.3783 39.9637 16.0589 39.9637C16.7396 39.9637 17.3307 39.7584 17.8292 39.3449C18.3278 38.9342 18.5785 38.2893 18.5785 37.4189V32.6819H15.6231V29.5008H22.3013V37.4189C22.3013 38.4802 22.1191 39.3882 21.7549 40.1401C21.3907 40.8949 20.9161 41.5196 20.3309 42.0141C19.7219 42.5317 19.0472 42.9222 18.3039 43.1795C17.5605 43.4398 16.8142 43.567 16.0589 43.567C15.3036 43.567 14.5573 43.4369 13.814 43.1795C13.0706 42.9193 12.4079 42.5317 11.8257 42.0141C11.2167 41.5196 10.7301 40.8949 10.3659 40.1401C10.0017 39.3854 9.81958 38.4773 9.81958 37.4189V24.1277H9.81958Z" fill="white"/>
<path d="M38.213 18.1875L32.8842 43.3586H29.6004L24.3074 18.1875H28.248L31.2035 35.7587H31.2751L34.2694 18.1875H38.2101H38.213Z" fill="white"/>
<path d="M52.48 25.4347H48.7573V24.6221C48.7573 23.7979 48.5573 23.0836 48.1543 22.4821C47.7513 21.8806 47.0766 21.5798 46.1302 21.5798C45.6198 21.5798 45.2048 21.6753 44.8883 21.8632C44.5719 22.0512 44.3152 22.2884 44.1211 22.5689C43.9271 22.8754 43.7927 23.2224 43.7211 23.6128C43.6494 24.0004 43.6106 24.4081 43.6106 24.8332C43.6106 25.3277 43.6285 25.7413 43.6644 26.071C43.7002 26.4006 43.7927 26.6956 43.939 26.9559C44.0853 27.2162 44.2973 27.4388 44.5779 27.6268C44.8585 27.8148 45.2406 28.0028 45.7272 28.1936L48.5752 29.2896C49.4022 29.5962 50.0709 29.9548 50.5814 30.3683C51.0919 30.7819 51.4949 31.259 51.7845 31.7998C52.0531 32.3666 52.2352 33.0086 52.3308 33.7258C52.4263 34.4459 52.4771 35.2643 52.4771 36.1839C52.4771 37.2453 52.3666 38.2285 52.1487 39.1366C51.9307 40.0446 51.5755 40.8168 51.0919 41.453C50.5814 42.1123 49.9127 42.6329 49.0857 43.0088C48.2588 43.3848 47.2497 43.5756 46.0556 43.5756C45.154 43.5756 44.3152 43.4224 43.536 43.1158C42.7568 42.8093 42.0881 42.3871 41.5298 41.8434C40.9686 41.3026 40.5268 40.6722 40.1984 39.9521C39.87 39.2349 39.7058 38.4483 39.7058 37.601V36.2562H43.4285V37.387C43.4285 38.0463 43.6285 38.6421 44.0316 39.1713C44.4316 39.7005 45.1093 39.9666 46.0586 39.9666C46.6915 39.9666 47.1841 39.8769 47.5363 39.7005C47.8886 39.5241 48.1633 39.2696 48.3573 38.9399C48.5513 38.6103 48.6678 38.2141 48.7036 37.7542C48.7394 37.2944 48.7573 36.7826 48.7573 36.2158C48.7573 35.5564 48.7335 35.0127 48.6857 34.5905C48.6349 34.1654 48.5394 33.8242 48.3931 33.5639C48.223 33.3036 47.9961 33.0925 47.7184 32.9277C47.4378 32.7628 47.0676 32.5864 46.6049 32.3984L43.942 31.3371C42.3359 30.7009 41.2582 29.8594 40.7119 28.8096C40.1656 27.7598 39.8909 26.4469 39.8909 24.8679C39.8909 23.9252 40.0252 23.0287 40.2909 22.1814C40.5596 21.334 40.9596 20.6024 41.494 19.9893C42.0045 19.3762 42.6553 18.8875 43.4464 18.5231C44.2375 18.1587 45.1809 17.9736 46.2735 17.9736C47.199 17.9736 48.0438 18.1385 48.8111 18.4681C49.5783 18.7978 50.241 19.2345 50.7993 19.7753C51.9188 20.906 52.4771 22.2045 52.4771 23.6649V25.4319L52.48 25.4347Z" fill="white"/>
</g>
<defs>
<clipPath id="clip0_8_5538">
<rect width="42.6604" height="25.5962" fill="white" transform="translate(9.81958 17.9766)"/>
</clipPath>
</defs>
</svg>
